<?xml version="1.0" standalone="no"?><!-- Generator: Gravit.io --><svg xmlns="http://www.w3.org/2000/svg" xmlns:xlink="http://www.w3.org/1999/xlink" style="isolation:isolate" viewBox="0 0 450 450" width="450" height="450"><defs><clipPath id="_clipPath_oovJ0ZilVxMMiZeSlue6uSGk5yMKdQVW"><rect width="450" height="450"/></clipPath></defs><g clip-path="url(#_clipPath_oovJ0ZilVxMMiZeSlue6uSGk5yMKdQVW)"><path d=" M 295.087 24 C 285.361 23.987 276.029 27.841 269.146 34.714 L 14.889 288.994 C 0.585 303.33 0.585 326.539 14.889 340.875 L 89.277 415.257 C 96.141 422.16 105.483 426.029 115.218 426 L 312.23 426 C 316.302 426 319.568 422.734 319.568 418.662 C 319.568 414.589 316.302 411.323 312.23 411.323 L 224.544 411.323 L 435.007 200.802 C 441.944 193.932 445.845 184.573 445.838 174.81 C 445.894 165.049 442.035 155.674 435.124 148.781 L 321.028 34.721 C 314.149 27.839 304.811 23.981 295.08 24 L 295.087 24 Z  M 295.087 38.677 C 300.738 38.677 306.359 40.797 310.659 45.098 L 424.711 159.179 C 428.894 163.332 431.191 168.895 431.169 174.773 C 431.169 180.673 428.843 186.206 424.631 190.396 L 416.338 198.703 L 333.782 116.177 C 332.413 114.79 330.546 114.01 328.598 114.01 C 326.649 114.01 324.782 114.79 323.413 116.177 C 322.037 117.547 321.264 119.408 321.264 121.35 C 321.264 123.292 322.037 125.153 323.413 126.524 L 405.94 209.079 L 306.271 308.807 L 161.024 163.56 L 279.523 45.098 C 283.647 40.968 289.251 38.656 295.087 38.677 Z  M 284.572 69.975 C 282.619 69.973 280.749 70.759 279.383 72.154 C 278.008 73.524 277.234 75.386 277.234 77.328 C 277.234 79.269 278.008 81.131 279.383 82.501 L 300.54 103.657 C 301.899 105.04 303.759 105.816 305.699 105.808 C 307.647 105.818 309.517 105.043 310.887 103.657 C 312.275 102.288 313.057 100.419 313.057 98.469 C 313.057 96.519 312.275 94.65 310.887 93.281 L 289.752 72.154 C 288.389 70.76 286.521 69.975 284.572 69.975 Z  M 211.959 150.27 C 210.012 150.265 208.144 151.039 206.771 152.42 L 196.402 162.826 C 195.026 164.196 194.253 166.058 194.253 168 C 194.253 169.941 195.026 171.803 196.402 173.173 C 197.84 174.604 199.704 175.353 201.59 175.353 C 203.541 175.346 205.408 174.562 206.778 173.173 L 217.155 162.826 C 219.244 160.72 219.866 157.566 218.733 154.824 C 217.6 152.082 214.933 150.288 211.966 150.27 L 211.959 150.27 Z  M 150.677 173.944 L 295.895 319.169 L 210.242 404.88 C 206.121 409.019 200.517 411.339 194.677 411.323 L 115.218 411.323 C 109.399 411.323 103.748 408.975 99.654 404.873 L 25.265 330.484 C 16.695 321.878 16.695 307.962 25.265 299.355 L 150.677 173.944 Z  M 237.9 176.211 C 235.954 176.212 234.088 176.985 232.712 178.361 L 222.335 188.767 C 220.96 190.137 220.186 191.999 220.186 193.941 C 220.186 195.882 220.96 197.744 222.335 199.114 C 223.774 200.545 225.638 201.264 227.524 201.264 C 229.471 201.269 231.339 200.495 232.712 199.114 L 243.088 188.767 C 245.177 186.661 245.799 183.507 244.666 180.765 C 243.533 178.023 240.867 176.228 237.9 176.211 Z  M 263.848 202.181 C 261.9 202.169 260.028 202.944 258.66 204.332 L 248.284 214.679 C 245.416 217.554 245.416 222.209 248.284 225.084 C 251.159 227.925 255.784 227.925 258.66 225.084 L 269.036 214.679 C 270.412 213.308 271.185 211.447 271.185 209.505 C 271.185 207.563 270.412 205.702 269.036 204.332 C 267.668 202.944 265.797 202.169 263.848 202.181 Z  M 289.789 228.093 C 287.841 228.112 285.978 228.895 284.601 230.273 L 274.225 240.62 C 272.135 242.726 271.513 245.88 272.646 248.621 C 273.779 251.363 276.446 253.158 279.413 253.175 C 281.306 253.175 283.163 252.434 284.601 251.025 L 295.007 240.62 C 296.382 239.249 297.156 237.388 297.156 235.446 C 297.156 233.504 296.382 231.643 295.007 230.273 C 293.63 228.876 291.75 228.091 289.789 228.093 Z  M 315.73 254.034 C 313.786 254.042 311.922 254.815 310.542 256.184 L 300.165 266.59 C 298.79 267.96 298.016 269.822 298.016 271.763 C 298.016 273.705 298.79 275.567 300.165 276.937 C 301.596 278.375 303.468 279.116 305.354 279.116 C 307.304 279.11 309.172 278.325 310.542 276.937 L 320.948 266.59 C 323.784 263.701 323.784 259.073 320.948 256.184 C 319.553 254.818 317.682 254.047 315.73 254.034 Z  M 356.259 411.323 C 352.207 411.323 348.921 414.609 348.921 418.662 C 348.921 422.714 352.207 426 356.259 426 L 385.613 426 C 389.685 426 392.951 422.734 392.951 418.662 C 392.951 414.589 389.685 411.323 385.613 411.323 L 356.259 411.323 Z " fill="rgb(0,0,0)"/></g></svg>